<svg width="16" height="16" viewBox="0 0 16 16" fill="none" xmlns="http://www.w3.org/2000/svg">
<path d="M9.35 0.25C11.5902 0.25 12.7103 0.25 13.566 0.685974C14.3186 1.06947 14.9305 1.68139 15.314 2.43404C15.75 3.28969 15.75 4.40979 15.75 6.65V9.35C15.75 11.5902 15.75 12.7103 15.314 13.566C14.9305 14.3186 14.3186 14.9305 13.566 15.314C12.7103 15.75 11.5902 15.75 9.35 15.75H6.65C4.40979 15.75 3.28969 15.75 2.43404 15.314C1.68139 14.9305 1.06947 14.3186 0.685974 13.566C0.25 12.7103 0.25 11.5902 0.25 9.35V6.65C0.25 4.40979 0.25 3.28969 0.685974 2.43404C1.06947 1.68139 1.68139 1.06947 2.43404 0.685974C3.28969 0.25 4.40979 0.25 6.65 0.25H9.35Z" fill="white"/>
</svg>
