<svg width="16" height="16" viewBox="0 0 16 16" fill="none" xmlns="http://www.w3.org/2000/svg">
<path opacity="0.4" d="M5.00012 0.25V3C5.00012 5.80026 5.00012 7.20039 5.54509 8.26995C6.02446 9.21076 6.78936 9.97567 7.73017 10.455C8.79973 11 10.1999 11 13.0001 11H15.75C15.75 11.6967 15.75 12.0451 15.7067 12.3369C15.4482 14.0797 14.0797 15.4482 12.3369 15.7067C12.0451 15.75 11.6967 15.75 11 15.75H6.65C4.40979 15.75 3.28969 15.75 2.43404 15.314C1.68139 14.9305 1.06947 14.3186 0.685974 13.566C0.25 12.7103 0.25 11.5902 0.25 9.35V5.00012C0.25 4.3033 0.25 3.95489 0.293308 3.66298C0.551863 1.92023 1.92023 0.551863 3.66298 0.293308C3.95489 0.25 4.3033 0.25 5.00012 0.25Z" fill="white"/>
</svg>
