<svg width="60" height="60" viewBox="0 0 60 60" fill="none" xmlns="http://www.w3.org/2000/svg">
<path d="M30 60C46.5685 60 60 46.5685 60 30C60 13.4315 46.5685 0 30 0C13.4315 0 0 13.4315 0 30C0 46.5685 13.4315 60 30 60Z" fill="white"/>
<path d="M30 59.5C46.2924 59.5 59.5 46.2924 59.5 30C59.5 13.7076 46.2924 0.5 30 0.5C13.7076 0.5 0.5 13.7076 0.5 30C0.5 46.2924 13.7076 59.5 30 59.5Z" stroke="#7D4AEA"/>
<path d="M22 29H34.17L28.58 23.41L30 22L38 30L30 38L28.59 36.59L34.17 31H22V29Z" fill="#7D4AEA"/>
</svg>
